<?xml version="1.0" encoding="UTF-8"?>
<svg id="Capa_2" data-name="Capa 2" xmlns="http://www.w3.org/2000/svg" width="50.2mm" height="44.1mm" viewBox="0 0 142.4 125">
  <defs>
    <style>
      .cls-1 {
        fill: #ffea2d;
      }

      .cls-1, .cls-2, .cls-3, .cls-4, .cls-5, .cls-6, .cls-7 {
        fill-rule: evenodd;
      }

      .cls-2 {
        fill: #35312f;
      }

      .cls-3 {
        fill: #f3c39d;
      }

      .cls-4 {
        fill: #706c6b;
      }

      .cls-5 {
        fill: #898584;
      }

      .cls-8 {
        fill: none;
        stroke: #d77b5e;
        stroke-linecap: round;
        stroke-linejoin: round;
        stroke-width: 1.7px;
      }

      .cls-6 {
        fill: #e7d42a;
      }

      .cls-7 {
        fill: #9c9897;
      }
    </style>
  </defs>
  <g id="Layer_1" data-name="Layer 1">
    <g>
      <g>
        <path class="cls-1" d="M74.9.1c29.6,1.7,54,19.2,63.4,42.6,3.1,7.6,4.5,15.9,4.1,24.5-.8,13.5-5.5,37.2-14.3,47-13.8,15.4-102.2,13-114.4,1.3C1,103.3-.8,76.9.2,59.1,2.2,24.3,35.6-2.1,74.9.1Z"/>
        <path class="cls-6" d="M85.2,1.4c34,6.4,58.9,34.1,57.1,65.8-.8,13.5-5.5,37.2-14.3,47-6.2,6.9-27.2,10.2-49.7,10.7,27.4-7.8,48-30.9,49.6-59.1,1.6-28.3-16.3-53.6-42.7-64.4Z"/>
      </g>
      <g>
        <path class="cls-3" d="M12,62.7c1.6-28.4,119.2-21.7,117.6,6.7-1.6,28.4-29.3,49.9-61.7,48.1S10.4,91,12,62.7Z"/>
        <path class="cls-2" d="M102.5,70.5c4.4.3,7.8,4.1,7.6,8.5s-4.1,7.8-8.5,7.6c-4.4-.3-7.8-4.1-7.6-8.5.3-4.4,4.1-7.8,8.5-7.6Z"/>
        <path class="cls-2" d="M38.7,66.9c4.4.3,7.8,4.1,7.6,8.5-.3,4.4-4.1,7.8-8.5,7.6s-7.8-4.1-7.6-8.5c.3-4.4,4.1-7.8,8.5-7.6Z"/>
        <path class="cls-8" d="M50,96.9c2.3,3.2,7,4.9,12.3,5.5,11.4,1.2,25.9-3.3,27.6-12.4"/>
        <path class="cls-8" d="M66.3,80.1c0-.4,0,.7-.1,1,0,.7,0,1.3-.1,2,0,1.6,0,5.1-1.3,6.2-1.4,1.2-7.2-5.9-7.7-1,0,.5-.1,1.1,0,1.5.5,6.4,8.8,7.3,10.9,1.5"/>
      </g>
      <g>
        <path class="cls-5" d="M12,62.7c1.6-28.4,119.2-21.7,117.6,6.7-1.1,5.9-26.2-4.4-58.6-6.2-32.4-1.8-60.8,6.9-58.9-.5Z"/>
        <path class="cls-4" d="M94,47.4c13.7,2.6,25.4,6.9,31.3,12.6,2.7,3.2,4.4,6.4,4.2,9.3-.2,1.2-1.5,1.8-3.8,1.8-5.4-.8-16.1-5.8-28.9-6.5-3.1-.2-6,0-8.9.2-5.4-.8-11.1-1.4-17-1.7h-.7c18-7.5,23.3-13.1,23.8-15.8Z"/>
        <path class="cls-7" d="M13.1,58.6c4.8,3.1,30-3.2,58.2-1.7,28.8,1.6,51.8,9.9,57.4,7.6.7,1.5,1,3.1.9,4.7-1.1,5.9-26.2-4.4-58.6-6.2-32.4-1.8-60.8,6.9-58.9-.5,0-1.4.5-2.8,1.1-4Z"/>
      </g>
    </g>
  </g>
</svg>