<?xml version="1.0" encoding="UTF-8"?>
<svg xmlns="http://www.w3.org/2000/svg" width="448.9" height="185.1" xmlns:xlink="http://www.w3.org/1999/xlink" viewBox="0 0 448.9 185.1">
  <defs>
    <style>
      .cls-1 {
        fill: url(#Degradado_sin_nombre_6);
      }

      .cls-2 {
        fill: url(#Degradado_sin_nombre_5);
      }

      .cls-3 {
        clip-path: url(#clippath-6);
      }

      .cls-4 {
        clip-path: url(#clippath-7);
      }

      .cls-5 {
        fill: #434343;
      }

      .cls-6 {
        font-family: Montserrat-ExtraBoldItalic, Montserrat;
        font-size: 27.2px;
        font-style: italic;
        font-variation-settings: 'wght' 800;
        font-weight: 700;
      }

      .cls-6, .cls-7 {
        fill: #be579b;
      }

      .cls-8 {
        clip-path: url(#clippath-4);
      }

      .cls-9 {
        fill: #221e20;
      }

      .cls-10 {
        fill: #909191;
      }

      .cls-11 {
        clip-path: url(#clippath-9);
      }

      .cls-12 {
        fill: #fff;
      }

      .cls-13 {
        mask: url(#mask);
      }

      .cls-14, .cls-15 {
        mix-blend-mode: soft-light;
      }

      .cls-16, .cls-17 {
        fill: #212d55;
      }

      .cls-18 {
        fill: #303031;
      }

      .cls-19 {
        opacity: .7;
      }

      .cls-19, .cls-20 {
        mix-blend-mode: multiply;
      }

      .cls-21, .cls-22 {
        fill: none;
      }

      .cls-23 {
        clip-path: url(#clippath-1);
      }

      .cls-24 {
        isolation: isolate;
      }

      .cls-25 {
        clip-path: url(#clippath-5);
      }

      .cls-26 {
        clip-path: url(#clippath-8);
      }

      .cls-27 {
        clip-path: url(#clippath-3);
      }

      .cls-28 {
        letter-spacing: 0em;
      }

      .cls-22 {
        stroke: #d9d9d9;
        stroke-miterlimit: 10;
        stroke-width: 1.8px;
      }

      .cls-29 {
        fill: #db97c2;
      }

      .cls-15, .cls-20 {
        opacity: .5;
      }

      .cls-30 {
        clip-path: url(#clippath-2);
      }

      .cls-31 {
        letter-spacing: 0em;
      }

      .cls-32 {
        fill: #d9d9d9;
      }

      .cls-32, .cls-17 {
        fill-rule: evenodd;
      }

      .cls-33 {
        letter-spacing: 0em;
      }

      .cls-34 {
        clip-path: url(#clippath);
      }

      .cls-35 {
        fill: #0e4596;
      }

      .cls-36 {
        letter-spacing: 0em;
      }
    </style>
    <clipPath id="clippath">
      <rect class="cls-21" x="385.4" y="91.3" width="46.4" height="26.4"/>
    </clipPath>
    <clipPath id="clippath-1">
      <rect class="cls-21" x="340.6" y="146.3" width="89.6" height="20.5"/>
    </clipPath>
    <clipPath id="clippath-2">
      <rect class="cls-21" x="370.3" y="118.3" width="18.3" height="11.2"/>
    </clipPath>
    <clipPath id="clippath-3">
      <rect class="cls-21" x="352.7" y="129.4" width="9.8" height="5.3"/>
    </clipPath>
    <clipPath id="clippath-4">
      <rect class="cls-21" x="387.1" y="93.8" width="16.4" height="42.5"/>
    </clipPath>
    <clipPath id="clippath-5">
      <rect class="cls-21" x="348.3" y="13" width="40.5" height="24.5"/>
    </clipPath>
    <clipPath id="clippath-6">
      <rect class="cls-21" x="349.9" y="44.3" width="33" height="32.7"/>
    </clipPath>
    <clipPath id="clippath-7">
      <rect class="cls-21" x="371.6" y="44.3" width="29.6" height="34.2"/>
    </clipPath>
    <clipPath id="clippath-8">
      <rect class="cls-21" x="351.4" y="94" width="51.8" height="17.8"/>
    </clipPath>
    <clipPath id="clippath-9">
      <path class="cls-21" d="M106.2,147.7l-14.5,18.5h38.3l-14.4,18.8h38.6l14.1-18.8h-38.3l14.2-18.5h-38ZM83.4,128.9l-15.5,18.8h38.6l15.2-18.8h-38.3ZM136.7,110.3l-15,18.5h38.3l-14.9,18.8h38.6l14.7-18.8h-38.3l14.7-18.5h-38ZM252.3,110.3c-.2,0-.3,0-.5,0h-39l-14.5,18.5h12.7c-5.2,5.4-9.4,11.7-12.2,18.7,0,0,0,0,0,.1h-16.6l-13.9,18.5h32.7l-2.8,3.8-.7.9-5.1,6.9-5.3,7.2h34.3c.8,0,1.5,0,2.3,0,.7,0,1.5,0,2.2,0h.1c3.5,0,7.1-.3,10.5-.9,7.6-1.3,14.9-3.9,21.2-7.7l14.5-30.3h-18.7s-9.8,20.3-9.8,20.3c-1.4.5-2.8.9-4.3,1.1-.5,0-.9.2-1.4.2-.8.1-1.7.2-2.5.3-.7,0-1.4-.1-2.1-.3-.8.1-1.6.2-2.4.3-3-.2-5.5-.8-7.5-1.9,0,0,0,0,0,0-3.7-1.9-5.6-5.1-5.6-9.2,0-1.5.2-3.2.7-4.9.4-1.4.9-2.8,1.4-4.2,0,0,0-.1,0-.2,0,0,0,0,0,0,3.7-8.9,11-15.8,20-18.8,1.1-.4,2.2-.7,3.3-.9,2.3-.5,4.7-.8,7.2-.8,7.7,0,12.9,2.1,16.2,7.9l18.3-11.5c-3.8-7.5-11.5-11.9-23.2-13-1.8-.2-3.8-.3-5.8-.3s-2.7,0-4,.1"/>
    </clipPath>
    <linearGradient id="Degradado_sin_nombre_6" data-name="Degradado sin nombre 6" x1="1085.3" y1="2144.7" x2="1086.3" y2="2144.7" gradientTransform="translate(-235846 466352.8) scale(217.4 -217.4)" gradientUnits="userSpaceOnUse">
      <stop offset="0" stop-color="#000"/>
      <stop offset=".5" stop-color="#fff"/>
      <stop offset="1" stop-color="#fff"/>
    </linearGradient>
    <mask id="mask" x="67.9" y="110.2" width="217.4" height="74.8" maskUnits="userSpaceOnUse">
      <rect class="cls-1" x="67.9" y="110.2" width="217.4" height="74.8"/>
    </mask>
    <linearGradient id="Degradado_sin_nombre_5" data-name="Degradado sin nombre 5" x1="1085.3" y1="2144.7" x2="1086.3" y2="2144.7" gradientTransform="translate(-235846 466352.8) scale(217.4 -217.4)" gradientUnits="userSpaceOnUse">
      <stop offset="0" stop-color="#be579b"/>
      <stop offset=".5" stop-color="#be579b"/>
      <stop offset="1" stop-color="#be579b"/>
    </linearGradient>
  </defs>
  <g class="cls-24">
    <g id="Capa_2" data-name="Capa 2">
      <g id="Capa_1-2" data-name="Capa 1">
        <path class="cls-35" d="M394.3,94.4s0,.1.2.3c0,.1.1.3.2.4.2.3.3.6.5.8.3.6.8,1.1,1.2,1.6.9,1,1.8,2,2.9,2.8,2.1,1.7,4.5,2.8,7.1,3.5l2,.4c.6.2,1.4.1,2,.2,1.3.2,2.8,0,4.2,0,1.4,0,2.9-.4,4.3-.5l4.3-1h.5c3.9-1.1,7.8,1.3,8.8,5.3.9,3.9-1.5,7.8-5.4,8.8-.3,0-.7.1-1,.2l-5.8.6c-2,0-3.9,0-5.9,0-2-.2-4-.3-6-.9-1-.3-2-.4-3-.8l-2.9-1c-3.8-1.6-7.4-4-10.3-7-1.5-1.5-2.7-3.1-3.8-4.9-.5-.9-1-1.8-1.5-2.7-.2-.5-.4-.9-.6-1.4-.1-.2-.2-.5-.3-.8,0-.3-.2-.5-.3-.9-.8-2.4.5-5,2.9-5.7,2.4-.8,5,.5,5.7,2.9"/>
        <g class="cls-20">
          <g class="cls-34">
            <path class="cls-16" d="M417.2,112.9c-3.1,2.8-16.6-.8-13.4-2.2,1.9-.8,6-3.8,9.2-6.2-.9,0-1.8,0-2.7,0-.7,0-1.4,0-2-.2l-2-.4c-2.6-.7-5-1.8-7.1-3.5-1.1-.8-2-1.8-2.9-2.8-.4-.5-.8-1.1-1.2-1.6-.2-.3-.4-.6-.5-.8,0-.1-.2-.3-.2-.4,0-.1-.1-.3-.2-.3-.8-2.4-3.4-3.7-5.7-2.9-2.4.8-3.7,3.4-2.9,5.7.1.4.2.7.3.9,0,.3.2.5.3.8.2.5.4,1,.6,1.4.4,1,1,1.8,1.5,2.7,1.1,1.7,2.3,3.4,3.8,4.9,2.9,3,6.4,5.4,10.3,7l2.9,1c1,.4,2,.5,3,.8,2,.5,4,.6,6,.9,2,.2,3.9,0,5.9,0l5.8-.6c.3,0,.7,0,1-.2,2.2-.5,3.9-2,4.8-3.8-4.4-.9-12.3-2.2-14.5-.2"/>
          </g>
        </g>
        <path class="cls-35" d="M429.6,156c-2.7-7.4-17-22.9-45.3-23.8-1.3-.5-28.4-5.3-38.8,7.7-10.3,13-5.9,21.3-2.7,24.9,3.1,3.6,18.4,3.3,16.1-7.5-1.8-9.4,14.6-5,20.9-6.3,0,0,20.4,2.9,31.8,11.3,6.9,4.8,21.8,1.3,17.9-6.3"/>
        <path class="cls-35" d="M401.7,96.4c-6.3-7.7-17.2-10.5-22.1-11.4-1.7-.3-3.4-.3-5,0-4.9.9-15.8,3.7-22.1,11.4-3.7,4.8-1.7,31.5,3.8,39.1h41.6c5.6-7.6,7.5-34.3,3.8-39.1"/>
        <rect class="cls-29" x="376.6" y="91.8" width="4.4" height="54.7"/>
        <path class="cls-9" d="M419.9,108.3c-.6,1.1-1.8,1.9-2.3,3.1-.7,1.5-.9,3.5.8,5.3,3.8,4.1,11.9,7.4,15.6,1.8,2.3-3.5,1.9-7.4,1.3-9.8-.4-1.7-1.8-3.5-3.6-4.6-2.4-1.5-6.2-2.9-10.2-1.1-.6.3-1.3.5-2,.6-.9.1-2.2.5-2.4,2-.2,1.8,2.8,2.7,2.8,2.7"/>
        <g class="cls-20">
          <g class="cls-23">
            <path class="cls-16" d="M430.2,158.4c-7.2,4.8-21.2-.6-32.3-6.9-11.1-6.3-27.4-5.9-35.9-3.9-8.5,2-6.4,11.2-9.6,13.8-2.5,2-8.9.6-11.9.1.7,1.3,1.5,2.4,2.2,3.2,3.1,3.6,18.4,3.3,16.1-7.5-1.8-9.4,14.6-5,20.9-6.3,0,0,20.4,2.9,31.8,11.3,6.1,4.3,18.5,2,18.5-3.9"/>
          </g>
        </g>
        <path class="cls-10" d="M379.3,92.4h.1c.1.2.2,0,.2.5,0,0-.2.8-.3,1.3-.1,1-.3,2.1-.2,3.1,0,.4.6.6.5,1.3-.3,1.4-2.1,1.7-1.5,3.2.3.8,1,1.3,1.1,2.1,0,.9-.5,1.8-.9,2.5-.3.6,1.5,1.2,1.2,2.8-.2,1-1.3,1.5-1.7,2.4-.5,1.1,2,2.3.9,4.2-.4.8-2,1-.5,2.6.8.8.8,2.2.1,3.4-.3.6-.7,1.2-.6,2,.1.9,1.5,1.4,1.4,2.8-.1,1.3-1.1,2.5-1.1,3.8,0,1,1.3,1.5,1.3,2.8,0,1.4-1.3,2.6-1.1,4,.1.9,1.7,1.1,1.7,2.6,0,1.4-.8,2.7-.3,4.2.1.3.3.8.3.8,0,0,.4,0,.6.4.2.6,0,1.4-.4,1.4-.4,0-.6-.7-.8-1.2-.5-1.1-.8-2.2-.5-3.4.2-1.1.8-2.3-.3-3.2-.8-.7-1.3-1.6-.9-2.9.4-1.2,1.6-2.2.5-3.7-.4-.6-.9-1.2-.8-2.1,0-1.5,1.4-2.8,1-4.1-.3-.8-1.2-1.1-1.3-2.2-.1-.9.4-1.9.8-2.7.3-.5.4-1.1.2-1.6-.4-.9-1.8-1.4-1.1-2.8.4-.7,1.3-1.1,1.2-2,0-1.2-1.5-1.7-1.2-3.2.3-1.5,2.5-2,1.5-3.4-.5-.7-1.3-1.3-.6-2.5,0-.1.1-.2.2-.4,0,0,0-.2.1-.3,0,0,0-.2.1-.2.1-.3.2-.6.2-.9-.2-.9-1.6-1.5-1.2-3.1.2-1,1.2-1.5,1.6-2.3,0-.2.1,0-.2-.2,0,0-.4-.6-.4-1.3,0-1.4,0-2.8.5-4.1.1-.4.3-.4.3-.4,0,0,.1,0,.1,0,0,0,0,0,.2,0"/>
        <path class="cls-22" d="M394.4,92.9s12.9,16.3-.7,42.6c0,0,38.8,13.9,34.7,28"/>
        <path class="cls-22" d="M360.6,92.9s-14.8,13.5-1.2,39.8c0,0-20.3,7-16.5,29.9"/>
        <path class="cls-18" d="M430.2,155.2c-1.1,0-16.5,6.8-17.7,8.3-1.2,1.5,5.3,5.2,6.3,8.6.4,1.4-.8,5.9,0,6.7.5.5,2.8.7,3.3.8.2,0,.5.1.8.1,1.9.1,6.4.4,10.6.6,3,0,7.1.3,8.9.2.7,0,1.5-.2,2-.6.5-.3,1-.9,1.1-1.5.1-.5,0-1.2-.4-1.8-.3-.5-1.3-1.1-1.6-1.3,0,0,0,0,0,0-1.4-.6-5.2-2.1-8.2-3.3-1-.4-1.6-.5-2.7-.9-1.1-.4,3.1-11.6-2.2-16"/>
        <path class="cls-18" d="M339.8,160.8c1.1,0,18-1.4,19.3,0,1.2,1.5-1.9,7.8-2.8,11.3-.4,1.4.8,5.9,0,6.7-.5.5-2.8.7-3.3.8-.2,0-.5.1-.8.1-1.9.1-6.4.4-10.6.6-3,0-7.1.3-8.9.2-.7,0-1.5-.2-2-.6-.5-.3-1-.9-1.1-1.5-.1-.5,0-1.2.4-1.8.3-.5,1.3-1.1,1.6-1.3,0,0,0,0,0,0,1.4-.6,5.2-2.1,8.2-3.3,1-.4,1.6-.5,2.7-.9,1.1-.4-2.8-4-2.8-10.4"/>
        <path class="cls-32" d="M367.2,103.9c-.2.3-.9.7-1,.6-1.6-1.9-2.4-4-3.2-6.9,0-.3.3-.9.7-1,1.3-.2,5.8-.2,7,0,.3,0,.6.6.4,1-1.2,1.9-2.5,3.9-3.8,6.4"/>
        <path class="cls-32" d="M396.9,97c0-.2-.3-.5-.5-.5-4.3-.2-7.8.1-11,0-.2,0-.6.2-.6.4-.6,3.2-.5,5.8,0,8,0,.2.5.7.9.7,1.9.1,8.9,0,10.8,0,.3,0,.5-.3.5-.6,0-1.4,0-6.6,0-8"/>
        <g class="cls-19">
          <g class="cls-30">
            <path class="cls-17" d="M376.4,125.3c4.5-.9,8.1-4.6,12.1-7,1-.6-4.7,7.3-7.7,9.1-1.7,1-3.4,2-5.3,2-6.2.3-5.5-4.6-4.7-5.1.3-.2,1.4,1.8,5.6,1"/>
          </g>
        </g>
        <g class="cls-19">
          <g class="cls-27">
            <path class="cls-16" d="M353.5,129.4s12,3.4,8.4,4.4c-6.4,1.7-9.3.6-9.1.5.2-.2,2.3-1,2.3-1,0,0-1-2-1.5-3.9"/>
          </g>
        </g>
        <g class="cls-20">
          <g class="cls-8">
            <path class="cls-16" d="M401.7,96.4c-.8-.9-1.6-1.8-2.5-2.6.1,1.1-1.6,2.5-1.5,3.9,1.9,38-12.3,36.8-10.4,37.8,3.5,1.8,10.6,0,10.6,0,5.6-7.6,7.5-34.3,3.8-39.1"/>
          </g>
        </g>
        <path class="cls-29" d="M423,53.8c0,24.4-10.3,39.1-44.2,39.1s-44.2-14.7-44.2-39.1,19.8-44.2,44.2-44.2,44.2,19.8,44.2,44.2"/>
        <path class="cls-7" d="M415.4,29.1c2.9,5.9,4.8,12.5,4.5,19.4-1,23.9-12.8,36.6-44.2,37.5-19.5.5-31.2-3.2-37.6-12,5.4,12.1,17.5,18.9,40.7,18.9,33.9,0,44.2-14.7,44.2-39.1s-2.8-17.7-7.6-24.7"/>
        <g class="cls-14">
          <g class="cls-25">
            <path class="cls-12" d="M380.9,13.1c-3.7-.4-7.8,0-10.2.6-8.7,1.9-18.6,7.5-22,16.2-2.4,6.2,6.2,10,20.3,5.6,14.1-4.4,18.5-10.6,19.5-14.2,1.6-5.6-2.6-7.7-7.6-8.2"/>
          </g>
        </g>
        <path class="cls-10" d="M377.8,44.3h-37.4s2,21.8,12.7,28.9c10.7,7.1,38.8,7.1,49.5,0,10.7-7.1,12.7-28.9,12.7-28.9h-37.4Z"/>
        <g class="cls-15">
          <g class="cls-3">
            <path class="cls-12" d="M382.9,44.3h-16.8c-3.8,6.1-9,14.5-16.2,26.2.9,1,2,2,3.1,2.7,2.4,1.6,5.7,2.9,9.6,3.7,6.8-10.9,15.4-24.8,20.4-32.7"/>
          </g>
        </g>
        <g class="cls-15">
          <g class="cls-4">
            <path class="cls-12" d="M392.7,44.3c-4,6.3-10.5,16.7-21.2,34,2.7.2,5.5.3,8.2.2,7.2-11.7,16.6-26.7,21.4-34.2h-8.4Z"/>
          </g>
        </g>
        <path class="cls-5" d="M445.6,132.9c-.8,0-1.5-.3-2.2-.8L298.9,7.7c-1.4-1.2-1.5-3.3-.3-4.7,1.2-1.4,3.3-1.5,4.7-.3l144.5,124.4c1.4,1.2,1.5,3.3.3,4.7-.7.8-1.6,1.2-2.5,1.2"/>
        <path class="cls-35" d="M359.8,92.7s.2.1.3.2c.1.1.2.2.4.3.3.2.6.5.9.7.6.5,1.2.9,1.9,1.3.6.4,1.3.8,2,1.1.7.3,1.3.7,2,1,2.7,1.2,5.6,2,8.5,2.2,2.9.2,5.7,0,8.5-.7,1.4-.2,2.8-.9,4.2-1.3,1.4-.5,2.7-1.3,4-1.9l.8-.4c3.5-1.6,7.7,0,9.3,3.5,1.6,3.5,0,7.7-3.5,9.3-.2,0-.3.1-.5.2-1.9.7-3.8,1.5-5.8,2.1-2,.5-4,1.1-6.1,1.3-4.1.7-8.5.5-12.6-.2-4.1-.7-8.1-2.2-11.7-4.3-.9-.5-1.7-1.1-2.6-1.6-.8-.6-1.7-1.2-2.5-1.8-.8-.6-1.6-1.3-2.3-2-.4-.3-.8-.7-1.1-1.1-.2-.2-.4-.4-.6-.6l-.6-.7c-1.8-1.9-1.6-5,.3-6.7,1.6-1.5,3.9-1.6,5.7-.5l1.2.7Z"/>
        <g class="cls-20">
          <g class="cls-26">
            <path class="cls-16" d="M402.2,98c-1.8-3.2-5.9-4.2-9.2-2.7l-.5.2c-1.3.6-2.5,1.3-3.8,1.8,0,2.1.6,4.1,1.4,5.7,1,1.9,0,4.2-2.1,4.7-2.9.7-7.1,1.3-11.9.3-11-2-20.4-10.3-24.2-14-.7,1.7-.5,3.7.8,5.1l.6.7c.2.2.4.4.6.6.4.4.7.7,1.1,1.1.8.7,1.5,1.3,2.3,2,.8.6,1.6,1.2,2.5,1.8.9.5,1.7,1.1,2.6,1.6,3.6,2,7.5,3.5,11.7,4.3,4.1.7,8.5.9,12.6.2,2.1-.2,4.1-.8,6.1-1.3,2-.6,3.9-1.4,5.8-2.1.2,0,.3-.1.5-.2,3.7-1.7,5.2-6.2,3.1-9.9"/>
          </g>
        </g>
        <path class="cls-9" d="M402.5,89.9c1.7-.5,3.2-1.7,5-2.1,2.3-.6,4.9-.6,6.6,1.4,3.7,4.4,4.7,13.2-4.2,16.5-5.5,2-10.4,1.3-13.3.4-2.1-.6-3.8-2.2-4.5-4.2-.9-2.7-1.2-6.7,2.8-10.8.6-.6,1.2-1.3,1.6-2,.5-.9,1.6-2.2,3.6-2.3,2.4,0,2.3,3.2,2.3,3.2"/>
        <path class="cls-12" d="M358.5,54c-36.3,13.3-14.5,76.2-61,80.8-18.4-15.8-36.9-31.5-55.3-47.3,47.3-4.7,23.9-69.8,63-81.5,4.5-1.3,9.3-.3,12.9,2.8,14,12,28.1,24,42.1,36,3.2,2.7,2.2,7.8-1.8,9.2"/>
        <path class="cls-9" d="M275.2,91.8c-4.7,4-10.8,6.7-19.2,7.5-4.6-3.9-9.2-7.9-13.8-11.8,8.4-.8,14.5-3.5,19.2-7.5,4.6,3.9,9.2,7.9,13.8,11.8"/>
        <path class="cls-9" d="M299.4,88.5c-2.5,5.9-5.7,11.1-10.3,15.1-4.6-3.9-9.2-7.9-13.8-11.8,4.7-4,7.9-9.2,10.3-15.1,4.6,3.9,9.2,7.9,13.8,11.8"/>
        <path class="cls-9" d="M319.2,81.5c-1.7,6.5-3.5,13-5.9,18.9-4.6-3.9-9.2-7.9-13.8-11.8,2.5-5.9,4.2-12.4,5.9-18.9,4.6,3.9,9.2,7.9,13.8,11.8"/>
        <path class="cls-9" d="M321.6,35.7c4.7-4,10.8-6.7,19.2-7.5-4.6-3.9-9.2-7.9-13.8-11.8-8.4.8-14.5,3.5-19.2,7.5,4.6,3.9,9.2,7.9,13.8,11.8"/>
        <path class="cls-9" d="M327.1,112.2c-2.5,5.9-5.7,11.1-10.3,15.1-4.6-3.9-9.2-7.9-13.8-11.8,4.7-4,7.9-9.2,10.3-15.1,4.6,3.9,9.2,7.9,13.8,11.8"/>
        <path class="cls-9" d="M349.3,59.3c2.8-2.4,6.2-4.3,10.2-5.7,3.5-1.2,4.4-5.7,1.6-8.1-2.2-1.8-4.3-3.7-6.5-5.5-8.4.8-14.5,3.5-19.2,7.5,4.6,3.9,9.2,7.9,13.8,11.8"/>
        <path class="cls-9" d="M325.1,62.6c2.5-5.9,5.7-11.1,10.3-15.1-4.6-3.9-9.2-7.9-13.8-11.8-4.7,4-7.9,9.2-10.3,15.1,4.6,3.9,9.2,7.9,13.8,11.8"/>
        <path class="cls-9" d="M283.7,123c8.4-.8,14.5-3.5,19.2-7.5-4.6-3.9-9.2-7.9-13.8-11.8-4.7,4-10.8,6.7-19.2,7.5,4.6,3.9,9.2,7.9,13.8,11.8"/>
        <path class="cls-9" d="M291.5,57.8c-1.7,6.5-3.5,13-5.9,18.9-4.6-3.9-9.2-7.9-13.8-11.8,2.5-5.9,4.2-12.4,5.9-18.9,4.6,3.9,9.2,7.9,13.8,11.8"/>
        <path class="cls-9" d="M297.4,39c2.5-5.9,5.7-11.1,10.3-15.1-4.6-3.9-9.2-7.9-13.8-11.8-4.7,4-7.9,9.2-10.3,15.1,4.6,3.9,9.2,7.9,13.8,11.8"/>
        <path class="cls-9" d="M338.9,74.4c-2.5,5.9-4.2,12.4-5.9,18.9-4.6-3.9-9.2-7.9-13.8-11.8,1.7-6.5,3.5-13,5.9-18.9,4.6,3.9,9.2,7.9,13.8,11.8"/>
        <path class="cls-9" d="M311.2,50.8c-2.5,5.9-4.2,12.4-5.9,18.9-4.6-3.9-9.2-7.9-13.8-11.8,1.7-6.5,3.5-13,5.9-18.9,4.6,3.9,9.2,7.9,13.8,11.8"/>
        <polygon class="cls-35" points="137.6 31.1 78 110.3 56.1 110.3 53.7 73.4 26 110.3 0 110.3 59.5 31.1 81.5 31.1 83.8 68 111.5 31.1 137.6 31.1"/>
        <polygon class="cls-35" points="165.4 51.3 155.2 64.8 188.2 64.8 173 85 140.1 85 121 110.3 94.3 110.3 153.9 31.1 218.2 31.1 203 51.3 165.4 51.3"/>
        <polygon class="cls-35" points="272.3 31.1 212.8 110.3 186.1 110.3 230.4 51.3 214.6 51.3 236.6 31.1 272.3 31.1"/>
        <path class="cls-7" d="M333.1,110.3c-27.5,0-51.7,18.1-58.4,43.1-5.1,18.6,5.6,31.7,28.6,31.7,27.5,0,51.7-18.1,58.4-43.1,5.1-18.6-5.6-31.7-28.6-31.7M340,143.2c-3.7,13.6-15.7,25.1-30.3,25-11.2,0-15.9-6.5-13.3-16.1,3.7-13.6,15.7-25.1,30.3-25,11.2,0,15.9,6.5,13.3,16.1"/>
        <g class="cls-11">
          <g class="cls-13">
            <rect class="cls-2" x="67.9" y="110.2" width="217.4" height="74.8"/>
          </g>
        </g>
        <text class="cls-6" transform="translate(63.7 23.1)"><tspan class="cls-31" x="0" y="0">SU</tspan><tspan class="cls-28" x="41.3" y="0">MM</tspan><tspan class="cls-36" x="95.9" y="0">IT</tspan><tspan class="cls-33" x="125.1" y="0"> </tspan></text>
      </g>
    </g>
  </g>
</svg>